<?xml version="1.0" encoding="UTF-8" standalone="no"?>
<svg
   xmlns:dc="http://purl.org/dc/elements/1.1/"
   xmlns:cc="http://creativecommons.org/ns#"
   xmlns:rdf="http://www.w3.org/1999/02/22-rdf-syntax-ns#"
   xmlns:svg="http://www.w3.org/2000/svg"
   xmlns="http://www.w3.org/2000/svg"
   xmlns:sodipodi="http://sodipodi.sourceforge.net/DTD/sodipodi-0.dtd"
   xmlns:inkscape="http://www.inkscape.org/namespaces/inkscape"
   width="93.065681mm"
   height="45.679916mm"
   viewBox="0 0 93.065681 45.679916"
   version="1.1"
   id="svg876"
   inkscape:version="1.0.1 (0767f8302a, 2020-10-17)"
   sodipodi:docname="logo-black.svg">
  <defs
     id="defs870">
    <linearGradient
       id="b"
       x1="-382.29999"
       y1="830.06"
       x2="-383.29999"
       y2="829.06"
       gradientTransform="matrix(21.265858,0,0,-21.265858,8002.6583,17690.293)"
       gradientUnits="userSpaceOnUse">
      <stop
         offset="0"
         stop-color="#f1295b"
         id="stop11" />
      <stop
         offset="1"
         stop-color="#2f2975"
         id="stop13" />
    </linearGradient>
  </defs>
  <sodipodi:namedview
     id="base"
     pagecolor="#ffffff"
     bordercolor="#666666"
     borderopacity="1.0"
     inkscape:pageopacity="0.0"
     inkscape:pageshadow="2"
     inkscape:zoom="0.35"
     inkscape:cx="995.87215"
     inkscape:cy="460.60997"
     inkscape:document-units="mm"
     inkscape:current-layer="layer1"
     inkscape:document-rotation="0"
     showgrid="false"
     inkscape:window-width="1920"
     inkscape:window-height="1048"
     inkscape:window-x="0"
     inkscape:window-y="32"
     inkscape:window-maximized="1" />
  <metadata
     id="metadata873">
    <rdf:RDF>
      <cc:Work
         rdf:about="">
        <dc:format>image/svg+xml</dc:format>
        <dc:type
           rdf:resource="http://purl.org/dc/dcmitype/StillImage" />
        <dc:title></dc:title>
      </cc:Work>
    </rdf:RDF>
  </metadata>
  <g
     inkscape:label="Layer 1"
     inkscape:groupmode="layer"
     id="layer1"
     transform="translate(157.65784,-26.296946)">
    <path
       d="m -157.65784,50.521998 v 8.490479 a 3.0982708,3.0982708 0 0 0 1.53987,2.674938 l 17.07621,9.876896 a 3.0850417,3.0850417 0 0 0 3.08239,0 l 17.07621,-9.876896 a 3.0982708,3.0982708 0 0 0 1.53988,-2.674938 v -7.424208 a 1.0980208,1.0980208 0 0 0 -2.19604,0 v 7.424208 a 0.89164583,0.89164583 0 0 1 -0.44186,0.769938 l -17.07621,9.876896 a 0.88370833,0.88370833 0 0 1 -0.88635,0 l -17.07621,-9.876896 a 0.89164583,0.89164583 0 0 1 -0.44185,-0.769938 V 39.258685 a 0.889,0.889 0 0 1 0.44185,-0.767291 l 17.06563,-9.876896 a 0.88370833,0.88370833 0 0 1 0.88635,0 l 17.07621,9.876896 a 0.889,0.889 0 0 1 0.44185,0.767291 v 7.196667 a 1.098021,1.098021 0 1 0 2.19604,0 v -7.196667 a 3.0929792,3.0929792 0 0 0 -1.53987,-2.672291 l -17.06563,-9.876896 a 3.0850417,3.0850417 0 0 0 -3.08239,0 l -6.56696,3.796771 -2.1934,1.27 -8.31585,4.810125 a 3.0929792,3.0929792 0 0 0 -1.53987,2.672291 z"
       id="path31"
       style="stroke-width:0.264583" />
    <text
       xml:space="preserve"
       style="font-style:normal;font-weight:normal;font-size:16.9628px;line-height:1.25;font-family:sans-serif;letter-spacing:0px;word-spacing:0px;fill:#000000;fill-opacity:1;stroke:none;stroke-width:0.424072"
       x="-106.5248"
       y="48.927704"
       id="text906"
       transform="scale(1.0124833,0.98767061)"><tspan
         sodipodi:role="line"
         id="tspan904"
         x="-106.5248"
         y="48.927704"
         style="font-style:normal;font-variant:normal;font-weight:500;font-stretch:normal;font-family:Montserrat;-inkscape-font-specification:'Montserrat Medium';stroke-width:0.424072">pepy</tspan></text>
    <path
       class="b"
       d="m -128.2812,38.424261 h -19.13759 a 1.0599413,1.0599413 0 0 0 -1.06413,1.064131 v 19.137595 a 1.0599413,1.0599413 0 0 0 1.06413,1.064133 h 19.13759 a 1.0599413,1.0599413 0 0 0 1.06414,-1.064133 V 39.488392 a 1.0599413,1.0599413 0 0 0 -1.06414,-1.064131"
       id="path57"
       style="fill:url(#b);stroke-width:0.418949" />
    <path
       class="d"
       d="m -140.75584,44.367491 v 9.518526 h -1.93974 v -9.518526 z m 7.57879,7.578791 v 1.922976 h -5.65582 v -1.90622 z m 0,-3.845954 v 1.922975 h -5.65582 v -1.88527 z m 0,-3.732837 v 1.922977 h -5.65582 v -1.922977 z"
       id="path63"
       style="fill:#ffffff;stroke-width:0.418949" />
    <g
       id="g988"
       transform="matrix(0.19288363,0,0,0.19288363,-143.78875,31.669078)">
      <path
         class="d"
         d="m 202.7202,117.96158 v 35.97552 h -7.33128 v -35.97552 z m 28.64425,28.64424 v 7.26794 h -21.3763 v -7.2046 z m 0,-14.53588 v 7.26794 h -21.3763 v -7.12544 z m 0,-14.10836 v 7.26794 h -21.3763 v -7.26794 z"
         id="path916"
         style="fill:#000000;stroke-width:1.58343" />
      <g
         aria-label="x"
         transform="scale(1.028742,0.97206102)"
         id="text928"
         style="font-style:normal;font-weight:normal;font-size:68.5918px;line-height:1.25;font-family:sans-serif;letter-spacing:0px;word-spacing:0px;fill:#000000;fill-opacity:1;stroke:none;stroke-width:1.7148"
         inkscape:transform-center-x="1.6368443"
         inkscape:transform-center-y="-0.79275937">
        <path
           d="m 257.72249,158.47385 -8.09383,-11.31765 -8.3682,11.31765 h -11.66061 l 14.1985,-18.58838 -13.71836,-18.31401 h 12.00357 l 7.81946,10.76891 8.02524,-10.76891 h 11.38624 l -13.71836,18.03964 14.2671,18.86275 z"
           style="font-style:normal;font-variant:normal;font-weight:bold;font-stretch:normal;font-family:Montserrat;-inkscape-font-specification:'Montserrat Bold';stroke-width:1.7148"
           id="path870" />
      </g>
      <g
         aria-label="T"
         transform="scale(1.028742,0.97206102)"
         id="text940"
         style="font-style:normal;font-weight:normal;font-size:53.424px;line-height:1.25;font-family:sans-serif;letter-spacing:0px;word-spacing:0px;fill:#000000;fill-opacity:1;stroke:none;stroke-width:1.3356"
         inkscape:transform-center-x="1.2748828"
         inkscape:transform-center-y="-0.61746173">
        <path
           d="m 289.33704,128.31886 h -11.96697 v -7.05196 h 32.58864 v 7.05196 h -11.96698 v 30.34484 h -8.65469 z"
           style="font-style:normal;font-variant:normal;font-weight:bold;font-stretch:normal;font-family:Montserrat;-inkscape-font-specification:'Montserrat Bold';stroke-width:1.3356"
           id="path873" />
      </g>
      <g
         aria-label="R"
         transform="scale(1.028742,0.97206102)"
         id="text944"
         style="font-style:normal;font-weight:normal;font-size:53.424px;line-height:1.25;font-family:sans-serif;letter-spacing:0px;word-spacing:0px;fill:#000000;fill-opacity:1;stroke:none;stroke-width:1.3356"
         inkscape:transform-center-x="1.2748828"
         inkscape:transform-center-y="-0.61746173">
        <path
           d="m 342.96857,158.3009 -7.21224,-10.41768 h -0.42739 -7.53278 v 10.41768 h -8.65469 v -37.3968 h 16.18747 q 4.96843,0 8.60126,1.65615 3.68626,1.65614 5.66295,4.70131 1.97669,3.04517 1.97669,7.21224 0,4.16707 -2.03012,7.21224 -1.97668,2.99174 -5.66294,4.59446 l 8.38757,12.0204 z m -0.16027,-23.8271 q 0,-3.15202 -2.03011,-4.80816 -2.03011,-1.70957 -5.93007,-1.70957 h -7.05196 v 13.03546 h 7.05196 q 3.89996,0 5.93007,-1.70957 2.03011,-1.70957 2.03011,-4.80816 z"
           style="font-style:normal;font-variant:normal;font-weight:bold;font-stretch:normal;font-family:Montserrat;-inkscape-font-specification:'Montserrat Bold';stroke-width:1.3356"
           id="path876" />
      </g>
      <g
         aria-label="A"
         transform="scale(1.028742,0.97206102)"
         id="text948"
         style="font-style:normal;font-weight:normal;font-size:53.424px;line-height:1.25;font-family:sans-serif;letter-spacing:0px;word-spacing:0px;fill:#000000;fill-opacity:1;stroke:none;stroke-width:1.3356"
         inkscape:transform-center-x="1.2748828"
         inkscape:transform-center-y="-0.61746173">
        <path
           d="m 386.08631,150.7351 h -17.3628 l -3.31229,8.0136 h -8.86838 l 16.66828,-37.3968 h 8.54784 l 16.72171,37.3968 h -9.08208 z m -2.72463,-6.57115 -5.93006,-14.31763 -5.93006,14.31763 z"
           style="font-style:normal;font-variant:normal;font-weight:bold;font-stretch:normal;font-family:Montserrat;-inkscape-font-specification:'Montserrat Bold';stroke-width:1.3356"
           id="path879" />
      </g>
    </g>
  </g>
</svg>
